<svg width="20" height="20" viewBox="0 0 20 20" fill="none" xmlns="http://www.w3.org/2000/svg">
<g clip-path="url(#clip0_490_979)">
<path d="M7.91667 20H1.25C0.918479 20 0.600537 19.8683 0.366117 19.6339C0.131696 19.3995 0 19.0815 0 18.75C0 18.4185 0.131696 18.1005 0.366117 17.8661C0.600537 17.6317 0.918479 17.5 1.25 17.5H7.91667C8.24819 17.5 8.56613 17.6317 8.80055 17.8661C9.03497 18.1005 9.16667 18.4185 9.16667 18.75C9.16667 19.0815 9.03497 19.3995 8.80055 19.6339C8.56613 19.8683 8.24819 20 7.91667 20Z" fill="#7572B7"/>
<path d="M6.25 15.8328H1.25C0.918479 15.8328 0.600537 15.7011 0.366116 15.4666C0.131696 15.2322 0 14.9143 0 14.5828C0 14.2512 0.131696 13.9333 0.366116 13.6989C0.600537 13.4645 0.918479 13.3328 1.25 13.3328H6.25C6.58152 13.3328 6.89946 13.4645 7.13388 13.6989C7.3683 13.9333 7.5 14.2512 7.5 14.5828C7.5 14.9143 7.3683 15.2322 7.13388 15.4666C6.89946 15.7011 6.58152 15.8328 6.25 15.8328Z" fill="#7572B7"/>
<path d="M4.58333 11.6672H1.25C0.91848 11.6672 0.600537 11.5355 0.366117 11.3011C0.131696 11.0667 0 10.7488 0 10.4172C0 10.0857 0.131696 9.76777 0.366117 9.53335C0.600537 9.29893 0.91848 9.16724 1.25 9.16724H4.58333C4.91485 9.16724 5.2328 9.29893 5.46722 9.53335C5.70164 9.76777 5.83333 10.0857 5.83333 10.4172C5.83333 10.7488 5.70164 11.0667 5.46722 11.3011C5.2328 11.5355 4.91485 11.6672 4.58333 11.6672Z" fill="#7572B7"/>
<path d="M12.0831 19.7677C11.7771 19.768 11.4816 19.6561 11.2526 19.453C11.0236 19.25 10.8771 18.9701 10.8407 18.6662C10.8043 18.3624 10.8807 18.0557 11.0553 17.8044C11.2299 17.5531 11.4907 17.3746 11.7881 17.3027C13.0208 17.0005 14.1569 16.3912 15.0905 15.5315C16.0242 14.6719 16.725 13.5898 17.1277 12.3863C17.5305 11.1827 17.622 9.8968 17.3937 8.64835C17.1654 7.3999 16.6248 6.22955 15.8223 5.24636C15.0197 4.26318 13.9813 3.49915 12.8039 3.02549C11.6265 2.55183 10.3483 2.38394 9.08844 2.53748C7.82861 2.69101 6.62815 3.16097 5.59893 3.90356C4.5697 4.64615 3.74521 5.6372 3.20229 6.78436C3.05749 7.07916 2.80249 7.30513 2.49241 7.4134C2.18233 7.52168 1.8421 7.50357 1.54527 7.36298C1.24844 7.22239 1.01887 6.97063 0.906187 6.66213C0.793508 6.35362 0.806777 6.01316 0.943124 5.71436C1.66659 4.18523 2.76545 2.86417 4.13727 1.87434C5.50909 0.884506 7.1092 0.258131 8.78843 0.0536041C10.4677 -0.150922 12.1713 0.0730591 13.7407 0.704669C15.31 1.33628 16.6938 2.35495 17.7632 3.66572C18.8325 4.97649 19.5526 6.53668 19.8562 8.20085C20.1599 9.86502 20.0372 11.579 19.4997 13.1829C18.9622 14.7869 18.0272 16.2287 16.7821 17.3738C15.537 18.5189 14.0222 19.3302 12.379 19.7319C12.2821 19.7555 12.1828 19.7675 12.0831 19.7677Z" fill="#7572B7"/>
<path d="M10.4167 5C10.0852 5 9.76728 5.1317 9.53286 5.36612C9.29844 5.60054 9.16675 5.91848 9.16675 6.25V9.82749C9.16684 10.2695 9.3425 10.6933 9.65508 11.0058L11.1492 12.5C11.385 12.7277 11.7007 12.8537 12.0285 12.8508C12.3562 12.848 12.6698 12.7165 12.9015 12.4848C13.1333 12.253 13.2647 11.9395 13.2676 11.6117C13.2704 11.284 13.1444 10.9682 12.9167 10.7325L11.6667 9.48249V6.25C11.6667 5.91848 11.535 5.60054 11.3006 5.36612C11.0662 5.1317 10.7483 5 10.4167 5Z" fill="#7572B7"/>
</g>
<defs>
<clipPath id="clip0_490_979">
<rect width="20" height="20" fill="white"/>
</clipPath>
</defs>
</svg>
