<svg width="24" height="24" viewBox="0 0 24 24" fill="none" xmlns="http://www.w3.org/2000/svg">
<path d="M14.0002 7V0.46C14.9253 0.809335 15.7655 1.35131 16.4652 2.05L19.9492 5.536C20.6487 6.23488 21.1911 7.07489 21.5402 8H15.0002C14.735 8 14.4807 7.89464 14.2931 7.70711C14.1056 7.51957 14.0002 7.26522 14.0002 7ZM22.0002 10.485V19C21.9987 20.3256 21.4714 21.5964 20.534 22.5338C19.5967 23.4711 18.3258 23.9984 17.0002 24H7.00024C5.67465 23.9984 4.4038 23.4711 3.46646 22.5338C2.52913 21.5964 2.00183 20.3256 2.00024 19V5C2.00183 3.67441 2.52913 2.40356 3.46646 1.46622C4.4038 0.528882 5.67465 0.00158786 7.00024 0L11.5152 0C11.6782 0 11.8392 0.013 12.0002 0.024V7C12.0002 7.79565 12.3163 8.55871 12.8789 9.12132C13.4415 9.68393 14.2046 10 15.0002 10H21.9762C21.9872 10.161 22.0002 10.322 22.0002 10.485ZM14.0002 19C14.0002 18.7348 13.8949 18.4804 13.7074 18.2929C13.5198 18.1054 13.2655 18 13.0002 18H8.00024C7.73503 18 7.48067 18.1054 7.29314 18.2929C7.1056 18.4804 7.00024 18.7348 7.00024 19C7.00024 19.2652 7.1056 19.5196 7.29314 19.7071C7.48067 19.8946 7.73503 20 8.00024 20H13.0002C13.2655 20 13.5198 19.8946 13.7074 19.7071C13.8949 19.5196 14.0002 19.2652 14.0002 19ZM17.0002 15C17.0002 14.7348 16.8949 14.4804 16.7074 14.2929C16.5198 14.1054 16.2655 14 16.0002 14H8.00024C7.73503 14 7.48067 14.1054 7.29314 14.2929C7.1056 14.4804 7.00024 14.7348 7.00024 15C7.00024 15.2652 7.1056 15.5196 7.29314 15.7071C7.48067 15.8946 7.73503 16 8.00024 16H16.0002C16.2655 16 16.5198 15.8946 16.7074 15.7071C16.8949 15.5196 17.0002 15.2652 17.0002 15Z" fill="#ACAAD4"/>
</svg>
