<svg width="20" height="20" viewBox="0 0 20 20" fill="none" xmlns="http://www.w3.org/2000/svg">
<g clip-path="url(#clip0_490_966)">
<path d="M9.54361 11.6823C5.99217 12.0034 3.28647 15.0043 3.33361 18.5698V18.7507C3.33361 19.441 3.89326 20.0007 4.58361 20.0007C5.27397 20.0007 5.83361 19.441 5.83361 18.7507V18.5198C5.79604 16.3306 7.41166 14.4637 9.58362 14.1865C11.8763 13.9592 13.9192 15.6335 14.1466 17.9262C14.16 18.0617 14.1668 18.1978 14.1669 18.334V18.7507C14.1669 19.441 14.7266 20.0007 15.4169 20.0007C16.1073 20.0007 16.6669 19.441 16.6669 18.7507V18.334C16.6629 14.6479 13.6714 11.6631 9.98541 11.6672C9.83803 11.6674 9.69069 11.6724 9.54361 11.6823Z" fill="#7572B7"/>
<path d="M10.0002 10C12.7617 10 15.0002 7.76141 15.0002 5C15.0002 2.23859 12.7617 0 10.0002 0C7.23884 0 5.00024 2.23859 5.00024 5C5.00298 7.76027 7.23997 9.99723 10.0002 10ZM10.0002 2.5C11.3809 2.5 12.5002 3.6193 12.5002 5C12.5002 6.3807 11.3809 7.5 10.0002 7.5C8.61954 7.5 7.50024 6.3807 7.50024 5C7.50024 3.6193 8.61954 2.5 10.0002 2.5Z" fill="#7572B7"/>
</g>
<defs>
<clipPath id="clip0_490_966">
<rect width="20" height="20" fill="white"/>
</clipPath>
</defs>
</svg>
