<svg width="24" height="24" viewBox="0 0 24 24" fill="none" xmlns="http://www.w3.org/2000/svg">
<path d="M7 21.6617C7.00031 21.3138 7.13875 20.9803 7.38489 20.7344L14.0959 14.0234C14.299 13.8203 14.4602 13.5792 14.5701 13.3139C14.6801 13.0485 14.7366 12.7641 14.7366 12.4769C14.7366 12.1896 14.6801 11.9052 14.5701 11.6398C14.4602 11.3745 14.299 11.1334 14.0959 10.9303L7.39363 4.22366C7.15462 3.97619 7.02237 3.64475 7.02536 3.30071C7.02835 2.95668 7.16634 2.62759 7.40962 2.38431C7.65289 2.14103 7.98199 2.00304 8.32602 2.00005C8.67005 1.99706 9.0015 2.12931 9.24896 2.36833L15.9512 9.06973C16.8524 9.9727 17.3586 11.1963 17.3586 12.472C17.3586 13.7478 16.8524 14.9714 15.9512 15.8744L9.24022 22.5854C9.05698 22.7687 8.82353 22.8937 8.56933 22.9445C8.31513 22.9954 8.05158 22.9697 7.81193 22.8709C7.57227 22.7721 7.36726 22.6045 7.22276 22.3893C7.07826 22.1741 7.00075 21.9209 7 21.6617Z" fill="#5E5B92"/>
</svg>
