<svg width="24" height="20" viewBox="0 0 24 20" fill="none" xmlns="http://www.w3.org/2000/svg">
<path fill-rule="evenodd" clip-rule="evenodd" d="M12.5556 3C13.1978 3 13.8198 3.08649 14.4107 3.24846C13.9781 3.83081 13.7222 4.55219 13.7222 5.33333C13.7222 7.26633 15.2892 8.83333 17.2222 8.83333C18.0034 8.83333 18.7247 8.57743 19.3071 8.14489C19.4691 8.73572 19.5556 9.35776 19.5556 10C19.5556 13.866 16.4215 17 12.5556 17H7.11111C5.39289 17 4 15.6071 4 13.8889V10C4 6.13401 7.13401 3 11 3H12.5556ZM8.08333 8.44444C8.08333 8.12228 8.3445 7.86111 8.66667 7.86111H11.7778C12.0999 7.86111 12.3611 8.12228 12.3611 8.44444C12.3611 8.76661 12.0999 9.02778 11.7778 9.02778H8.66667C8.3445 9.02778 8.08333 8.76661 8.08333 8.44444ZM8.08333 11.5556C8.08333 11.2334 8.3445 10.9722 8.66667 10.9722H14.8889C15.2111 10.9722 15.4722 11.2334 15.4722 11.5556C15.4722 11.8777 15.2111 12.1389 14.8889 12.1389H8.66667C8.3445 12.1389 8.08333 11.8777 8.08333 11.5556ZM17.2222 7.66667C18.5109 7.66667 19.5555 6.622 19.5555 5.33333C19.5555 4.04467 18.5109 3 17.2222 3C15.9336 3 14.8889 4.04467 14.8889 5.33333C14.8889 6.622 15.9336 7.66667 17.2222 7.66667Z" fill="#2C2933"/>
</svg>
