<svg width="24" height="24" viewBox="0 0 24 24" fill="none" xmlns="http://www.w3.org/2000/svg">
<g clip-path="url(#clip0_30_2164)">
<path d="M21 3C20.2044 3 19.4413 3.31607 18.8787 3.87868C18.3161 4.44129 18 5.20435 18 6V18C18 18.7956 18.3161 19.5587 18.8787 20.1213C19.4413 20.6839 20.2044 21 21 21C21.7956 21 22.5587 20.6839 23.1213 20.1213C23.6839 19.5587 24 18.7956 24 18V6C24 5.20435 23.6839 4.44129 23.1213 3.87868C22.5587 3.31607 21.7956 3 21 3Z" fill="white"/>
<path d="M12 0C11.2044 0 10.4413 0.31607 9.87868 0.87868C9.31607 1.44129 9 2.20435 9 3V21C9 21.7956 9.31607 22.5587 9.87868 23.1213C10.4413 23.6839 11.2044 24 12 24C12.7956 24 13.5587 23.6839 14.1213 23.1213C14.6839 22.5587 15 21.7956 15 21V3C15 2.20435 14.6839 1.44129 14.1213 0.87868C13.5587 0.31607 12.7956 0 12 0V0Z" fill="white"/>
<path d="M3 6C2.20435 6 1.44129 6.31607 0.87868 6.87868C0.31607 7.44129 0 8.20435 0 9L0 15C0 15.7956 0.31607 16.5587 0.87868 17.1213C1.44129 17.6839 2.20435 18 3 18C3.79565 18 4.55871 17.6839 5.12132 17.1213C5.68393 16.5587 6 15.7956 6 15V9C6 8.20435 5.68393 7.44129 5.12132 6.87868C4.55871 6.31607 3.79565 6 3 6Z" fill="white"/>
</g>
<defs>
<clipPath id="clip0_30_2164">
<rect width="24" height="24" fill="white"/>
</clipPath>
</defs>
</svg>
