<svg width="32" height="32" viewBox="0 0 32 32" fill="none" xmlns="http://www.w3.org/2000/svg">
<path d="M15.9998 29.24C9.2798 29.24 3.7998 23.7733 3.7998 17.04V14.5333C3.7998 14.0133 4.22647 13.6 4.73314 13.6C5.2398 13.6 5.66647 14.0266 5.66647 14.5333V17.04C5.66647 22.7333 10.2931 27.36 15.9865 27.36C21.6798 27.36 26.3065 22.7333 26.3065 17.04V14.5333C26.3065 14.0133 26.7331 13.6 27.2398 13.6C27.7465 13.6 28.1731 14.0266 28.1731 14.5333V17.04C28.1998 23.7733 22.7198 29.24 15.9998 29.24Z" fill="#7572B7"/>
<path d="M16 2.66663C11.52 2.66663 7.8667 6.31996 7.8667 10.8V17.0533C7.8667 21.5333 11.52 25.1866 16 25.1866C20.48 25.1866 24.1334 21.5333 24.1334 17.0533V10.8C24.1334 6.31996 20.48 2.66663 16 2.66663ZM18.9067 14.12C18.8134 14.48 18.48 14.72 18.12 14.72C18.0534 14.72 17.9734 14.7066 17.9067 14.6933C16.5467 14.32 15.1067 14.32 13.7467 14.6933C13.3067 14.8133 12.8667 14.56 12.7467 14.12C12.6267 13.6933 12.88 13.24 13.32 13.12C14.96 12.6666 16.6934 12.6666 18.3334 13.12C18.7734 13.24 19.0267 13.68 18.9067 14.12ZM20.04 10.4266C19.92 10.76 19.6134 10.96 19.28 10.96C19.1867 10.96 19.0934 10.9466 19 10.9066C16.96 10.16 14.72 10.16 12.68 10.9066C12.2534 11.0666 11.7867 10.8533 11.6267 10.4266C11.48 10.0133 11.6934 9.54663 12.12 9.38663C14.52 8.51996 17.16 8.51996 19.5467 9.38663C19.9734 9.54663 20.1867 10.0133 20.04 10.4266Z" fill="#7572B7"/>
</svg>
