<svg width="12" height="12" viewBox="0 0 12 12" fill="none" xmlns="http://www.w3.org/2000/svg">
<g clip-path="url(#clip0_61_9399)">
<path d="M8.25 0C8.05109 0 7.86032 0.0790176 7.71967 0.21967C7.57902 0.360322 7.5 0.551088 7.5 0.75C7.5 1.4085 7.328 2 5.25 2H2.25C1.65347 2.00066 1.08155 2.23793 0.659741 2.65974C0.237927 3.08155 0.000661713 3.65347 0 4.25L0 5.75C0.00136918 6.15536 0.112615 6.55277 0.321898 6.89993C0.531182 7.2471 0.830673 7.53102 1.1885 7.7215L2.7775 11.268C2.87444 11.4858 3.03243 11.6709 3.23235 11.8008C3.43228 11.9307 3.66557 11.9999 3.904 12C4.08636 11.9999 4.2658 11.9542 4.42603 11.8672C4.58627 11.7801 4.72222 11.6544 4.82156 11.5015C4.92089 11.3486 4.98046 11.1732 4.99486 10.9915C5.00926 10.8097 4.97803 10.6272 4.904 10.4605L3.7755 8H5.25C7.328 8 7.5 8.5915 7.5 9.25C7.5 9.44891 7.57902 9.63968 7.71967 9.78033C7.86032 9.92098 8.05109 10 8.25 10C8.44891 10 8.63968 9.92098 8.78033 9.78033C8.92098 9.63968 9 9.44891 9 9.25V0.75C9 0.551088 8.92098 0.360322 8.78033 0.21967C8.63968 0.0790176 8.44891 0 8.25 0V0ZM7.5 6.8555C6.7808 6.58973 6.01611 6.46891 5.25 6.5H2.25C2.05109 6.5 1.86032 6.42098 1.71967 6.28033C1.57902 6.13968 1.5 5.94891 1.5 5.75V4.25C1.5 4.05109 1.57902 3.86032 1.71967 3.71967C1.86032 3.57902 2.05109 3.5 2.25 3.5H5.25C6.01611 3.53109 6.7808 3.41027 7.5 3.1445V6.8555ZM11.921 7.8355C11.877 7.92364 11.816 8.00223 11.7416 8.06679C11.6671 8.13136 11.5807 8.18062 11.4873 8.21178C11.3938 8.24294 11.2951 8.25537 11.1968 8.24838C11.0985 8.24138 11.0026 8.21509 10.9145 8.171L10.4145 7.921C10.2365 7.83202 10.1012 7.67599 10.0383 7.48723C9.97538 7.29848 9.99002 7.09246 10.079 6.9145C10.168 6.73654 10.324 6.60122 10.5128 6.5383C10.7015 6.47538 10.9075 6.49002 11.0855 6.579L11.5855 6.829C11.6736 6.87304 11.7522 6.93401 11.8168 7.00843C11.8814 7.08286 11.9306 7.16927 11.9618 7.26274C11.9929 7.35621 12.0054 7.4549 11.9984 7.55318C11.9914 7.65145 11.9651 7.74739 11.921 7.8355ZM10.079 3.0855C10.0349 2.99739 10.0086 2.90145 10.0016 2.80318C9.99463 2.7049 10.0071 2.60621 10.0382 2.51274C10.0694 2.41927 10.1186 2.33286 10.1832 2.25843C10.2478 2.18401 10.3264 2.12304 10.4145 2.079L10.9145 1.829C11.0925 1.74002 11.2985 1.72538 11.4872 1.7883C11.676 1.85122 11.832 1.98654 11.921 2.1645C12.01 2.34246 12.0246 2.54848 11.9617 2.73723C11.8988 2.92599 11.7635 3.08202 11.5855 3.171L11.0855 3.421C10.9974 3.46509 10.9015 3.49138 10.8032 3.49838C10.7049 3.50537 10.6062 3.49294 10.5127 3.46178C10.4193 3.43063 10.3329 3.38136 10.2584 3.31679C10.184 3.25223 10.123 3.17364 10.079 3.0855ZM10 5C10 4.80109 10.079 4.61032 10.2197 4.46967C10.3603 4.32902 10.5511 4.25 10.75 4.25H11.25C11.4489 4.25 11.6397 4.32902 11.7803 4.46967C11.921 4.61032 12 4.80109 12 5C12 5.19891 11.921 5.38968 11.7803 5.53033C11.6397 5.67098 11.4489 5.75 11.25 5.75H10.75C10.5511 5.75 10.3603 5.67098 10.2197 5.53033C10.079 5.38968 10 5.19891 10 5Z" fill="#ACAAD4"/>
</g>
<defs>
<clipPath id="clip0_61_9399">
<rect width="12" height="12" fill="white"/>
</clipPath>
</defs>
</svg>
