<svg width="12" height="12" viewBox="0 0 12 12" fill="none" xmlns="http://www.w3.org/2000/svg">
<g clip-path="url(#clip0_61_9393)">
<path d="M4.75 12H0.75C0.551088 12 0.360322 11.921 0.21967 11.7803C0.0790176 11.6397 0 11.4489 0 11.25C0 11.0511 0.0790176 10.8603 0.21967 10.7197C0.360322 10.579 0.551088 10.5 0.75 10.5H4.75C4.94891 10.5 5.13968 10.579 5.28033 10.7197C5.42098 10.8603 5.5 11.0511 5.5 11.25C5.5 11.4489 5.42098 11.6397 5.28033 11.7803C5.13968 11.921 4.94891 12 4.75 12Z" fill="#ACAAD4"/>
<path d="M3.75 9.49969H0.75C0.551088 9.49969 0.360322 9.42068 0.21967 9.28002C0.0790176 9.13937 0 8.94861 0 8.74969C0 8.55078 0.0790176 8.36002 0.21967 8.21937C0.360322 8.07871 0.551088 7.99969 0.75 7.99969H3.75C3.94891 7.99969 4.13968 8.07871 4.28033 8.21937C4.42098 8.36002 4.5 8.55078 4.5 8.74969C4.5 8.94861 4.42098 9.13937 4.28033 9.28002C4.13968 9.42068 3.94891 9.49969 3.75 9.49969Z" fill="#ACAAD4"/>
<path d="M2.75 7.00031H0.75C0.551088 7.00031 0.360322 6.92129 0.21967 6.78064C0.0790176 6.63998 0 6.44922 0 6.25031C0 6.05139 0.0790176 5.86063 0.21967 5.71997C0.360322 5.57932 0.551088 5.50031 0.75 5.50031H2.75C2.94891 5.50031 3.13968 5.57932 3.28033 5.71997C3.42098 5.86063 3.5 6.05139 3.5 6.25031C3.5 6.44922 3.42098 6.63998 3.28033 6.78064C3.13968 6.92129 2.94891 7.00031 2.75 7.00031Z" fill="#ACAAD4"/>
<path d="M7.24973 11.8606C7.06612 11.8608 6.88882 11.7936 6.75142 11.6718C6.61403 11.55 6.52609 11.382 6.50428 11.1997C6.48246 11.0174 6.52828 10.8334 6.63305 10.6826C6.73781 10.5319 6.89426 10.4247 7.07273 10.3816C7.81232 10.2003 8.49397 9.83469 9.05417 9.31889C9.61436 8.80309 10.0349 8.15388 10.2765 7.43174C10.5181 6.70961 10.573 5.93806 10.4361 5.18899C10.2991 4.43991 9.97475 3.7377 9.49322 3.14779C9.01169 2.55788 8.38866 2.09947 7.6822 1.81527C6.97573 1.53107 6.20881 1.43034 5.45291 1.52246C4.69702 1.61458 3.97674 1.89656 3.35921 2.34211C2.74168 2.78767 2.24698 3.3823 1.92123 4.07059C1.83435 4.24747 1.68135 4.38305 1.4953 4.44802C1.30925 4.51298 1.10511 4.50212 0.927015 4.41776C0.748917 4.33341 0.611173 4.18235 0.543566 3.99725C0.475958 3.81215 0.48392 3.60787 0.565728 3.42859C0.999808 2.51111 1.65913 1.71848 2.48222 1.12458C3.30531 0.530679 4.26537 0.154854 5.27291 0.032138C6.28045 -0.0905779 7.30266 0.0438111 8.24425 0.422777C9.18583 0.801742 10.0161 1.41295 10.6577 2.19941C11.2994 2.98587 11.7314 3.92199 11.9136 4.92049C12.0958 5.91899 12.0222 6.94736 11.6997 7.90974C11.3771 8.87212 10.8162 9.73717 10.0691 10.4243C9.32206 11.1113 8.41318 11.5981 7.42723 11.8391C7.36912 11.8533 7.30954 11.8605 7.24973 11.8606Z" fill="#ACAAD4"/>
<path d="M6.25 3C6.05109 3 5.86032 3.07902 5.71967 3.21967C5.57902 3.36032 5.5 3.55109 5.5 3.75V5.8965C5.50006 6.16169 5.60545 6.416 5.793 6.60349L6.6895 7.49999C6.83095 7.63661 7.0204 7.71221 7.21705 7.7105C7.4137 7.70879 7.6018 7.62991 7.74086 7.49086C7.87992 7.3518 7.95879 7.16369 7.9605 6.96705C7.96221 6.7704 7.88662 6.58095 7.75 6.43949L7 5.6895V3.75C7 3.55109 6.92098 3.36032 6.78033 3.21967C6.63968 3.07902 6.44891 3 6.25 3Z" fill="#ACAAD4"/>
</g>
<defs>
<clipPath id="clip0_61_9393">
<rect width="12" height="12" fill="white"/>
</clipPath>
</defs>
</svg>
