<svg width="24" height="20" viewBox="0 0 24 20" fill="none" xmlns="http://www.w3.org/2000/svg">
<path fill-rule="evenodd" clip-rule="evenodd" d="M18 4C19.1046 4 20 4.89543 20 6V14C20 15.1046 19.1046 16 18 16L4 16C2.89543 16 2 15.1046 2 14V6C2 4.89543 2.89543 4 4 4H18ZM8.11004 10.1288L9.01799 9.24206L12.2034 6.1311C12.5207 5.82124 13.1065 6.10808 12.9541 6.49868L12.0762 8.74942C11.981 8.99361 12.1936 9.24578 12.4949 9.24578H13.5578C13.937 9.24578 14.1396 9.62739 13.89 9.87122L9.79661 13.8689C9.47934 14.1788 8.89349 13.8919 9.04585 13.5013L9.9238 11.2506C10.019 11.0064 9.80636 10.7542 9.50515 10.7542H8.44215C8.06301 10.7542 7.86038 10.3726 8.11004 10.1288ZM22.75 8C22.75 7.58579 22.4142 7.25 22 7.25C21.5858 7.25 21.25 7.58579 21.25 8V12C21.25 12.4142 21.5858 12.75 22 12.75C22.4142 12.75 22.75 12.4142 22.75 12V8Z" fill="#2C2933"/>
</svg>
