<svg width="28" height="28" viewBox="0 0 28 28" fill="none" xmlns="http://www.w3.org/2000/svg">
<path d="M26.5442 9.34409C25.3329 7.84319 23.5064 6.97245 21.5777 6.9765H19.209L19.3136 6.3628C19.7401 3.8627 18.0591 1.4903 15.559 1.06385C15.2839 1.01693 15.0051 0.995162 14.7261 0.998881C12.973 0.989748 11.3648 1.97019 10.5698 3.53266L8.8124 6.9765H6.39253C2.86366 6.98038 0.00382813 9.84016 0 13.3691V19.1805C0.00382813 22.7094 2.86366 25.5692 6.39253 25.573H20.3492C23.3657 25.5621 25.968 23.4531 26.6034 20.5043L27.832 14.6929C28.2351 12.807 27.7615 10.8399 26.5442 9.34409ZM3.48682 19.1805V13.3691C3.48682 11.7643 4.78773 10.4634 6.39253 10.4634H8.13597V22.0862H6.39253C4.78778 22.0862 3.48682 20.7853 3.48682 19.1805ZM24.4206 13.9711L23.1909 19.7826C22.9026 21.1227 21.72 22.0814 20.3492 22.0862H11.6228V9.1395L13.6754 5.11685C13.8929 4.70965 14.3254 4.46405 14.7865 4.48576C15.3976 4.48614 15.8927 4.98188 15.8923 5.59296C15.8922 5.65465 15.887 5.71623 15.8768 5.77704L15.0783 10.4634H21.5777C23.1825 10.4632 24.4835 11.764 24.4837 13.3688C24.4838 13.5712 24.4626 13.7731 24.4206 13.9711Z" fill="#5E5B92"/>
</svg>
