<svg width="28" height="28" viewBox="0 0 28 28" fill="none" xmlns="http://www.w3.org/2000/svg">
<path d="M26.6172 7.8215C25.9824 4.87023 23.3785 2.75902 20.3598 2.74786H6.39587C2.86491 2.75235 0.00382812 5.61398 0 9.14488V14.9593C0.00382812 18.49 2.86513 21.3513 6.39587 21.3552H8.81584L10.5753 24.8008C11.3852 26.3793 13.0203 27.3618 14.7942 27.3359C17.3317 27.3392 19.3915 25.2849 19.3948 22.7474C19.3951 22.4866 19.3733 22.2263 19.3295 21.9692L19.2248 21.3552H21.5947C25.127 21.3552 27.9906 18.4917 27.9906 14.9594C27.9906 14.5147 27.9442 14.0711 27.8522 13.636L26.6172 7.8215ZM3.48862 14.9593V9.14488C3.48862 7.53925 4.79024 6.23769 6.39581 6.23769H8.14013V17.8665H6.39581C4.79024 17.8665 3.48862 16.5649 3.48862 14.9593ZM23.8472 16.7908C23.2961 17.4729 22.4657 17.8684 21.5889 17.8665H15.086L15.8849 22.5552C15.9422 22.8765 15.8521 23.2065 15.6395 23.4541C15.4134 23.7165 15.0797 23.8613 14.7336 23.8472C14.2933 23.8518 13.8882 23.6074 13.687 23.2158L11.6287 19.1957V6.23769H20.3597C21.7319 6.24174 22.9156 7.20183 23.2029 8.5437L24.4332 14.3581C24.6165 15.2159 24.401 16.1105 23.8472 16.7908Z" fill="#5E5B92"/>
</svg>
